<svg width="52" height="52" viewBox="0 0 52 52" fill="none" xmlns="http://www.w3.org/2000/svg">
                            <path fill-rule="evenodd" clip-rule="evenodd"
                                d="M40.8442 13.9776C41.0295 13.7925 41.1766 13.5728 41.2769 13.3309C41.3773 13.089 41.429 12.8297 41.4292 12.5679C41.4293 12.306 41.3779 12.0467 41.2779 11.8047C41.1778 11.5627 41.031 11.3427 40.846 11.1574C40.6609 10.9722 40.4412 10.8251 40.1993 10.7248C39.9574 10.6244 39.6982 10.5727 39.4363 10.5725C39.1744 10.5724 38.9151 10.6238 38.6731 10.7238C38.4311 10.8239 38.2111 10.9707 38.0259 11.1557L26 23.1816L13.9776 11.1557C13.6034 10.7815 13.0959 10.5713 12.5667 10.5713C12.0374 10.5713 11.5299 10.7815 11.1557 11.1557C10.7815 11.5299 10.5713 12.0374 10.5713 12.5667C10.5713 13.0959 10.7815 13.6034 11.1557 13.9776L23.1816 26L11.1557 38.0224C10.9704 38.2077 10.8235 38.4276 10.7232 38.6697C10.6229 38.9118 10.5713 39.1713 10.5713 39.4333C10.5713 39.6954 10.6229 39.9548 10.7232 40.1969C10.8235 40.439 10.9704 40.659 11.1557 40.8442C11.5299 41.2185 12.0374 41.4287 12.5667 41.4287C12.8287 41.4287 13.0882 41.3771 13.3302 41.2768C13.5723 41.1765 13.7923 41.0295 13.9776 40.8442L26 28.8184L38.0259 40.8442C38.4001 41.218 38.9074 41.4278 39.4363 41.4275C39.9652 41.4271 40.4722 41.2167 40.846 40.8425C41.2197 40.4683 41.4295 39.961 41.4292 39.4321C41.4289 38.9032 41.2185 38.3961 40.8442 38.0224L28.8184 26L40.8442 13.9776Z"
                                fill="#DA0000" />
                        </svg>
