<svg width="265" height="50" viewBox="0 0 265 50" fill="none" xmlns="http://www.w3.org/2000/svg"><path fill-rule="evenodd" clip-rule="evenodd" d="M30.336 20.7571V29.5819H38.7128C39.8267 29.5819 40.6678 29.2881 41.2247 28.7006C41.9181 27.9887 42.2704 26.8023 42.2704 25.1638C42.2704 23.5593 41.9522 22.4181 41.327 21.7627C40.7019 21.096 39.8267 20.7571 38.7128 20.7571H30.336ZM89.0418 38.5763C84.5636 45.4576 76.7778 50 67.9123 50C58.0806 50 49.5561 44.3842 45.4302 36.2034C44.339 36.5876 43.1229 36.7797 41.7703 36.7797H30.336V39.8983H21.1295V36.7797H9.70663C6.77418 36.7797 4.47823 35.8757 2.80742 34.0678C0.932018 32.0452 0 28.9944 0 24.9153C0 20.8362 0.943384 17.7853 2.84152 15.7627C4.51233 13.9661 6.80828 13.0621 9.70663 13.0621H21.1295V10.1017H30.336V13.0621H41.7703C43.1456 13.0621 44.3959 13.2655 45.4984 13.661C49.6584 5.55932 58.1375 0 67.9123 0C76.7778 0 84.5749 4.56497 89.0532 11.4463C91.6333 10.5424 96.1115 10.0904 102.488 10.0904C110.808 10.0904 115.945 10.7797 117.878 12.1582C119.56 13.3446 120.401 16.5198 120.401 21.6497H111.388C111.388 19.9774 110.933 18.904 110.035 18.452C108.921 17.8757 106.398 17.5932 102.488 17.5932C98.1006 17.5932 95.5318 17.9322 94.7703 18.6102C94.0088 19.2881 93.6223 21.4237 93.6223 25.0282C93.6223 28.5989 94.0088 30.7232 94.7703 31.3898C95.5318 32.0678 98.1006 32.4068 102.488 32.4068C106.455 32.4068 108.944 32.1695 109.933 31.6949C110.922 31.2203 111.422 30.113 111.422 28.3503H120.401C120.401 33.5141 119.582 36.678 117.957 37.8418C116.025 39.2316 110.865 39.9209 102.488 39.9209C96.0547 39.9209 91.5651 39.4689 89.0418 38.5763ZM21.1295 20.7571H12.7641C11.6502 20.7571 10.8091 21.0508 10.2522 21.6271C9.55887 22.3503 9.20652 23.5367 9.20652 25.1638C9.20652 26.8023 9.53613 27.9661 10.2067 28.6667C10.7978 29.2768 11.6502 29.5819 12.7641 29.5819H21.1295V20.7571ZM67.9123 3.69492C79.7557 3.69492 89.3601 13.2316 89.3601 25.0056C89.3601 36.7684 79.7557 46.3164 67.9123 46.3164C56.0802 46.3164 46.4759 36.7684 46.4759 25.0056C46.4759 13.2316 56.0802 3.69492 67.9123 3.69492Z" fill="#02DA72"/><path fill-rule="evenodd" clip-rule="evenodd" d="M53.0342 20.0452H70.7084L63.6615 7.5141H71.6404L82.7906 25.0056L71.6404 42.4859H63.6615L70.8448 29.7288H53.0342V20.0452Z" fill="#02DA72"/><path fill-rule="evenodd" clip-rule="evenodd" d="M71.3449 40.9491L81.5289 25.0056L71.3449 9.06206H66.1051L73.1521 21.5818H54.3071V28.1807H73.2885L66.1051 40.9491H71.3449Z" fill="#02DA72"/><path d="M138.018 9.11861C138.018 9.89827 137.745 10.5536 137.2 11.096C136.654 11.6384 135.995 11.9096 135.222 11.9096H134.756V13.2994C134.756 13.6045 134.597 13.7627 134.279 13.7627C133.972 13.7627 133.813 13.6045 133.813 13.2994V11.9096H133.347C132.562 11.9096 131.903 11.6384 131.358 11.096C130.812 10.5536 130.539 9.89827 130.539 9.11861V8.65533C130.539 7.88697 130.812 7.2316 131.358 6.67793C131.903 6.13556 132.562 5.86437 133.347 5.86437H133.813V4.93782C133.813 4.63273 133.972 4.48584 134.279 4.48584C134.597 4.48584 134.756 4.63273 134.756 4.93782V5.86437H135.222C135.995 5.86437 136.654 6.13556 137.2 6.67793C137.745 7.2316 138.018 7.88697 138.018 8.65533V9.11861ZM137.086 9.11861V8.65533C137.086 8.14686 136.893 7.70618 136.529 7.3446C136.165 6.98302 135.722 6.80223 135.222 6.80223H134.756V10.983L135.222 10.9717C135.722 10.9717 136.165 10.7909 136.529 10.4293C136.893 10.0678 137.086 9.62708 137.086 9.11861ZM133.813 10.983V6.80223H133.347C132.824 6.80223 132.392 6.98302 132.028 7.3446C131.664 7.71748 131.483 8.14686 131.483 8.65533V9.12991C131.483 9.63838 131.664 10.0791 132.028 10.4406C132.392 10.8022 132.824 10.983 133.347 10.983H133.813ZM145.463 11.4463C145.463 12.0904 145.236 12.6327 144.781 13.0847C144.326 13.5367 143.781 13.7627 143.133 13.7627H142.201C141.564 13.7627 141.007 13.5367 140.553 13.0847C140.098 12.6327 139.871 12.0904 139.871 11.4463V6.80223C139.871 6.16946 140.098 5.61579 140.553 5.16381C141.007 4.71183 141.564 4.48584 142.201 4.48584H143.133C143.781 4.48584 144.326 4.71183 144.781 5.16381C145.236 5.61579 145.463 6.16946 145.463 6.80223V11.4463ZM144.519 11.435V6.80223C144.519 6.42934 144.383 6.10166 144.11 5.83047C143.849 5.54799 143.519 5.4124 143.133 5.4124H142.212C141.826 5.4124 141.496 5.54799 141.223 5.83047C140.951 6.10166 140.814 6.42934 140.814 6.80223V11.435C140.814 11.8192 140.951 12.1469 141.223 12.418C141.496 12.6892 141.826 12.8248 142.212 12.8248H143.133C143.519 12.8248 143.849 12.6892 144.11 12.418C144.383 12.1469 144.519 11.8192 144.519 11.435ZM149.691 5.4124H147.816C147.497 5.4124 147.35 5.2655 147.35 4.94912C147.35 4.63273 147.497 4.48584 147.816 4.48584H152.498C152.805 4.48584 152.964 4.63273 152.964 4.94912C152.964 5.2655 152.805 5.4124 152.498 5.4124H150.623V13.2994C150.623 13.6158 150.464 13.7627 150.157 13.7627C149.85 13.7627 149.691 13.6158 149.691 13.2994V5.4124ZM160.409 11.4463C160.409 12.0904 160.182 12.6327 159.716 13.0847C159.261 13.5367 158.716 13.7627 158.079 13.7627H157.147C156.499 13.7627 155.954 13.5367 155.499 13.0847C155.044 12.6327 154.817 12.0904 154.817 11.4463V6.80223C154.817 6.16946 155.044 5.61579 155.499 5.16381C155.954 4.71183 156.499 4.48584 157.147 4.48584H158.079C158.716 4.48584 159.261 4.71183 159.716 5.16381C160.182 5.61579 160.409 6.16946 160.409 6.80223V11.4463ZM159.466 11.435V6.80223C159.466 6.42934 159.329 6.10166 159.057 5.83047C158.784 5.54799 158.454 5.4124 158.079 5.4124H157.147C156.761 5.4124 156.431 5.54799 156.17 5.83047C155.897 6.10166 155.761 6.42934 155.761 6.80223V11.435C155.761 11.8192 155.897 12.1469 156.17 12.418C156.431 12.6892 156.761 12.8248 157.147 12.8248H158.079C158.454 12.8248 158.784 12.6892 159.057 12.418C159.329 12.1469 159.466 11.8192 159.466 11.435ZM167.888 13.2994C167.888 13.6045 167.729 13.7627 167.422 13.7627C167.104 13.7627 166.945 13.6158 166.945 13.2994V5.4124H165.433L163.194 13.4237C163.137 13.6497 162.989 13.7627 162.751 13.7627C162.432 13.7627 162.273 13.6158 162.273 13.322C162.273 13.2768 162.285 13.2316 162.296 13.1751L164.637 4.82482C164.694 4.59884 164.842 4.48584 165.081 4.48584H167.422C167.729 4.48584 167.888 4.63273 167.888 4.94912V13.2994ZM170.684 8.19206H171.605V6.33895C171.605 5.83047 171.787 5.3898 172.162 5.02821C172.525 4.66663 172.957 4.48584 173.48 4.48584H174.412C174.935 4.48584 175.378 4.66663 175.742 5.02821C176.106 5.3898 176.288 5.83047 176.288 6.33895V11.9096C176.288 12.418 176.106 12.8587 175.742 13.2203C175.378 13.5819 174.935 13.7627 174.412 13.7627H173.48C172.957 13.7627 172.525 13.5819 172.162 13.2203C171.787 12.8587 171.605 12.418 171.605 11.9096V9.12991H170.684V13.2994C170.684 13.6158 170.525 13.7627 170.207 13.7627C169.9 13.7627 169.741 13.6045 169.741 13.2994V4.94912C169.741 4.63273 169.9 4.48584 170.207 4.48584C170.525 4.48584 170.684 4.63273 170.684 4.94912V8.19206ZM175.344 11.8983V6.33895C175.344 6.09036 175.253 5.87567 175.071 5.69488C174.89 5.50279 174.662 5.4124 174.412 5.4124H173.48C173.23 5.4124 173.014 5.50279 172.821 5.69488C172.639 5.87567 172.548 6.09036 172.548 6.33895V11.8983C172.548 12.1582 172.639 12.3728 172.821 12.5536C173.014 12.7344 173.23 12.8248 173.48 12.8248H174.412C174.662 12.8248 174.89 12.7344 175.071 12.5536C175.253 12.3728 175.344 12.1582 175.344 11.8983ZM184.687 13.2994C184.687 13.6045 184.528 13.7627 184.221 13.7627C183.903 13.7627 183.744 13.6045 183.744 13.2994V6.67793L181.823 9.88697C181.709 10.0791 181.573 10.1695 181.425 10.1695C181.277 10.1695 181.141 10.0791 181.027 9.88697L179.095 6.67793V13.2994C179.095 13.6045 178.947 13.7627 178.629 13.7627C178.311 13.7627 178.163 13.6045 178.163 13.2994V4.99432C178.163 4.63273 178.299 4.45194 178.584 4.45194C178.765 4.45194 178.913 4.55364 179.027 4.75703L181.425 8.73443L183.812 4.75703C183.937 4.55364 184.085 4.45194 184.255 4.45194C184.551 4.45194 184.687 4.63273 184.687 4.99432V13.2994ZM192.155 13.2994C192.155 13.6045 191.996 13.7627 191.677 13.7627C191.37 13.7627 191.211 13.6045 191.211 13.2994V6.73443L187.449 13.5254C187.324 13.7288 187.176 13.8305 186.994 13.8305C186.71 13.8305 186.563 13.661 186.563 13.2994V4.94912C186.563 4.63273 186.722 4.48584 187.029 4.48584C187.347 4.48584 187.506 4.63273 187.506 4.94912V11.5141L191.268 4.72313C191.382 4.51974 191.541 4.41805 191.723 4.41805C192.007 4.41805 192.155 4.58754 192.155 4.93782V13.2994ZM198.679 8.19206V4.92652C198.679 4.62143 198.838 4.46324 199.156 4.46324C199.463 4.46324 199.622 4.62143 199.622 4.92652V13.2768C199.622 13.5932 199.463 13.7514 199.145 13.7514C198.838 13.7514 198.679 13.6045 198.679 13.2994V9.12991H194.973V13.2994C194.973 13.6158 194.814 13.7627 194.507 13.7627C194.189 13.7627 194.03 13.6045 194.03 13.2994V4.94912C194.03 4.63273 194.189 4.48584 194.507 4.48584C194.814 4.48584 194.973 4.63273 194.973 4.94912V8.19206H198.679ZM202.43 8.19206H204.771C205.089 8.19206 205.237 8.35025 205.237 8.66663C205.237 8.97172 205.089 9.12991 204.771 9.12991H202.43V12.8248H205.703C206.021 12.8248 206.169 12.983 206.169 13.2994C206.169 13.6045 206.021 13.7627 205.703 13.7627H201.964C201.645 13.7627 201.486 13.6158 201.486 13.3333V4.94912C201.486 4.63273 201.645 4.48584 201.964 4.48584H205.703C206.021 4.48584 206.169 4.63273 206.169 4.94912C206.169 5.2655 206.021 5.4124 205.703 5.4124H202.43V8.19206ZM212.227 13.7627H210.363C209.715 13.7627 209.17 13.5367 208.715 13.0847C208.249 12.6327 208.022 12.0904 208.022 11.4463V6.80223C208.022 6.16946 208.249 5.61579 208.715 5.16381C209.17 4.71183 209.715 4.48584 210.363 4.48584H212.227C212.545 4.48584 212.705 4.63273 212.705 4.94912C212.705 5.2655 212.545 5.4124 212.227 5.4124H210.363C209.977 5.4124 209.647 5.54799 209.374 5.83047C209.101 6.10166 208.965 6.42934 208.965 6.80223V11.435C208.965 11.8192 209.101 12.1469 209.374 12.418C209.647 12.6892 209.977 12.8248 210.363 12.8248H212.227C212.545 12.8248 212.705 12.983 212.705 13.2994C212.705 13.6045 212.545 13.7627 212.227 13.7627ZM219.24 12.8248V4.94912C219.24 4.63273 219.388 4.48584 219.706 4.48584C220.024 4.48584 220.172 4.63273 220.172 4.94912V12.8248H220.649C220.956 12.8248 221.115 12.983 221.115 13.2881V14.6779C221.115 14.9943 220.956 15.1412 220.649 15.1412C220.331 15.1412 220.172 14.9943 220.172 14.6892V13.7627H215.023C214.716 13.7627 214.557 13.6045 214.557 13.2994V4.94912C214.557 4.63273 214.716 4.48584 215.035 4.48584C215.341 4.48584 215.501 4.63273 215.501 4.94912V12.8248H219.24ZM223.9 8.19206H226.253C226.56 8.19206 226.719 8.35025 226.719 8.66663C226.719 8.97172 226.56 9.12991 226.253 9.12991H223.9V12.8248H227.185C227.492 12.8248 227.651 12.983 227.651 13.2994C227.651 13.6045 227.492 13.7627 227.185 13.7627H223.434C223.116 13.7627 222.968 13.6158 222.968 13.3333V4.94912C222.968 4.63273 223.116 4.48584 223.434 4.48584H227.185C227.492 4.48584 227.651 4.63273 227.651 4.94912C227.651 5.2655 227.492 5.4124 227.185 5.4124H223.9V8.19206ZM234.164 8.19206V4.92652C234.164 4.62143 234.323 4.46324 234.63 4.46324C234.948 4.46324 235.107 4.62143 235.107 4.92652V13.2768C235.107 13.5932 234.948 13.7514 234.618 13.7514C234.311 13.7514 234.164 13.6045 234.164 13.2994V9.12991H230.458V13.2994C230.458 13.6158 230.299 13.7627 229.981 13.7627C229.674 13.7627 229.515 13.6045 229.515 13.2994V4.94912C229.515 4.63273 229.674 4.48584 229.981 4.48584C230.299 4.48584 230.458 4.63273 230.458 4.94912V8.19206H234.164ZM239.324 5.4124H237.448C237.142 5.4124 236.982 5.2655 236.982 4.94912C236.982 4.63273 237.142 4.48584 237.448 4.48584H242.131C242.438 4.48584 242.597 4.63273 242.597 4.94912C242.597 5.2655 242.438 5.4124 242.131 5.4124H240.256V13.2994C240.256 13.6158 240.097 13.7627 239.79 13.7627C239.483 13.7627 239.324 13.6158 239.324 13.2994V5.4124ZM249.099 8.19206V4.92652C249.099 4.62143 249.258 4.46324 249.576 4.46324C249.883 4.46324 250.042 4.62143 250.042 4.92652V13.2768C250.042 13.5932 249.883 13.7514 249.565 13.7514C249.258 13.7514 249.099 13.6045 249.099 13.2994V9.12991H245.393V13.2994C245.393 13.6158 245.234 13.7627 244.927 13.7627C244.609 13.7627 244.45 13.6045 244.45 13.2994V4.94912C244.45 4.63273 244.609 4.48584 244.927 4.48584C245.234 4.48584 245.393 4.63273 245.393 4.94912V8.19206H249.099ZM255.646 11.4463V10.5197C255.646 10.1356 255.509 9.80788 255.236 9.53669C254.964 9.2655 254.634 9.12991 254.248 9.12991H252.85V12.8248H254.248C254.634 12.8248 254.964 12.6892 255.236 12.418C255.509 12.1469 255.646 11.8192 255.646 11.4463ZM256.589 11.4463C256.589 12.0904 256.362 12.6327 255.907 13.0847C255.452 13.5367 254.895 13.7627 254.248 13.7627H252.383C252.258 13.7627 252.145 13.7175 252.054 13.6271C251.963 13.5367 251.906 13.4237 251.906 13.2994V4.94912C251.906 4.63273 252.065 4.48584 252.383 4.48584C252.69 4.48584 252.85 4.63273 252.85 4.94912V8.19206H254.248C254.895 8.19206 255.452 8.41805 255.907 8.87002C256.362 9.322 256.589 9.87567 256.589 10.5197V11.4463ZM258.453 13.2994C258.453 13.6045 258.294 13.7627 257.987 13.7627C257.669 13.7627 257.51 13.6045 257.51 13.2994V4.94912C257.51 4.63273 257.669 4.48584 257.987 4.48584C258.294 4.48584 258.453 4.63273 258.453 4.94912V13.2994ZM261.249 8.19206H263.602C263.909 8.19206 264.068 8.35025 264.068 8.66663C264.068 8.97172 263.909 9.12991 263.602 9.12991H261.249V12.8248H264.534C264.841 12.8248 265 12.983 265 13.2994C265 13.6045 264.841 13.7627 264.534 13.7627H260.783C260.465 13.7627 260.317 13.6158 260.317 13.3333V4.94912C260.317 4.63273 260.465 4.48584 260.783 4.48584H264.534C264.841 4.48584 265 4.63273 265 4.94912C265 5.2655 264.841 5.4124 264.534 5.4124H261.249V8.19206ZM136.143 27.322C136.143 27.9661 135.915 28.5197 135.461 28.9717C135.006 29.4124 134.449 29.6384 133.801 29.6384H131.005C130.687 29.6384 130.528 29.4915 130.528 29.1751C130.528 28.87 130.687 28.7118 131.005 28.7118H133.801C134.188 28.7118 134.517 28.5762 134.79 28.305C135.063 28.0339 135.199 27.7062 135.199 27.322V25.0056H132.869C132.551 25.0056 132.403 24.8587 132.403 24.5423C132.403 24.226 132.551 24.0791 132.869 24.0791H135.199V22.6892C135.199 22.305 135.063 21.9774 134.79 21.7062C134.517 21.435 134.188 21.2994 133.801 21.2994H131.005C130.687 21.2994 130.528 21.1412 130.528 20.8248C130.528 20.5197 130.687 20.3615 131.005 20.3615H133.801C134.449 20.3615 135.006 20.5875 135.461 21.0395C135.915 21.4915 136.143 22.0339 136.143 22.6779V27.322ZM143.86 26.8587C143.86 27.6271 143.576 28.2825 143.031 28.8248C142.485 29.3785 141.814 29.6384 141.041 29.6384H138.234C138.098 29.6384 137.984 29.6045 137.893 29.5141C137.802 29.4237 137.768 29.322 137.768 29.1751V20.8248C137.768 20.7005 137.813 20.5988 137.904 20.4971C137.995 20.4067 138.109 20.3615 138.234 20.3615H141.041C141.678 20.3615 142.235 20.5875 142.69 21.0395C143.156 21.5028 143.383 22.0452 143.383 22.6779C143.383 23.4237 143.087 24.0226 142.508 24.4971C143.406 25.0395 143.86 25.8305 143.86 26.8587ZM142.439 22.6892C142.439 22.305 142.303 21.9774 142.03 21.7062C141.758 21.435 141.428 21.2994 141.041 21.2994H138.7V24.0791H141.041C141.428 24.0791 141.758 23.9435 142.03 23.6723C142.303 23.3898 142.439 23.0621 142.439 22.6892ZM142.917 26.8587C142.917 26.3502 142.735 25.9096 142.371 25.548C142.008 25.1864 141.564 25.0056 141.041 25.0056H138.7V28.7118H141.041C141.564 28.7118 142.008 28.531 142.371 28.1695C142.735 27.8079 142.917 27.3672 142.917 26.8587ZM150.18 26.3728L148.804 22.2825L147.418 26.3728H150.18ZM147.1 27.3107L146.429 29.3107C146.361 29.5254 146.224 29.6271 146.008 29.6271C145.69 29.6271 145.531 29.4802 145.531 29.1864C145.531 29.1299 145.542 29.0734 145.554 29.0169L148.361 20.6666C148.452 20.3954 148.6 20.2712 148.804 20.2712C149.009 20.2712 149.157 20.3954 149.248 20.6666L152.044 29.0169C152.067 29.0734 152.067 29.1299 152.067 29.1864C152.067 29.4802 151.907 29.6271 151.589 29.6271C151.373 29.6271 151.237 29.5254 151.169 29.3107L150.498 27.3107H147.1ZM159.545 29.209C159.545 29.322 159.489 29.435 159.398 29.5254C159.295 29.6158 159.182 29.661 159.057 29.661C158.886 29.661 158.75 29.5706 158.659 29.4011L155.92 24.5649L154.806 25.6384V29.1864C154.806 29.4915 154.658 29.6384 154.34 29.6384C154.022 29.6384 153.874 29.4915 153.874 29.1864V20.8248C153.874 20.531 154.022 20.3728 154.34 20.3728C154.658 20.3728 154.806 20.531 154.806 20.8248V24.3841L158.738 20.4971C158.829 20.4067 158.943 20.3615 159.057 20.3615C159.182 20.3615 159.295 20.4067 159.386 20.5084C159.489 20.5988 159.534 20.7118 159.534 20.8361C159.534 20.9491 159.489 21.0621 159.398 21.1525L156.613 23.9096L159.477 28.9604C159.523 29.0395 159.545 29.1186 159.545 29.209ZM166.001 25.9322H163.205C162.694 25.9322 162.262 25.7514 161.898 25.3898C161.534 25.0282 161.353 24.5875 161.353 24.0791V20.8248C161.353 20.5197 161.512 20.3615 161.819 20.3615C162.137 20.3615 162.296 20.5197 162.296 20.8248V24.0678C162.296 24.3277 162.387 24.5423 162.569 24.7231C162.751 24.9039 162.967 24.9943 163.217 24.9943H166.001V20.8248C166.001 20.5197 166.16 20.3615 166.467 20.3615C166.786 20.3615 166.945 20.5197 166.945 20.8248V27.7853C166.945 28.305 166.763 28.7344 166.399 29.1073C166.035 29.4576 165.592 29.6384 165.081 29.6384H162.762C162.444 29.6384 162.296 29.4915 162.296 29.1751C162.296 28.87 162.444 28.7118 162.751 28.7118H165.069C165.331 28.7118 165.547 28.6214 165.729 28.4406C165.91 28.2486 166.001 28.0339 166.001 27.7853V25.9322ZM173.526 26.3728L172.15 22.2825L170.764 26.3728H173.526ZM170.445 27.3107L169.775 29.3107C169.707 29.5254 169.57 29.6271 169.354 29.6271C169.036 29.6271 168.877 29.4802 168.877 29.1864C168.877 29.1299 168.877 29.0734 168.9 29.0169L171.707 20.6666C171.798 20.3954 171.946 20.2712 172.15 20.2712C172.355 20.2712 172.503 20.3954 172.582 20.6666L175.39 29.0169C175.401 29.0734 175.412 29.1299 175.412 29.1864C175.412 29.4802 175.253 29.6271 174.935 29.6271C174.719 29.6271 174.583 29.5254 174.515 29.3107L173.833 27.3107H170.445ZM181.891 28.7118V20.8248C181.891 20.5197 182.039 20.3615 182.357 20.3615C182.675 20.3615 182.823 20.5197 182.823 20.8248V28.7118H183.301C183.607 28.7118 183.767 28.8587 183.767 29.1751V30.5649C183.767 30.87 183.607 31.0282 183.301 31.0282C182.982 31.0282 182.823 30.87 182.823 30.5649V29.6384H177.674C177.367 29.6384 177.208 29.4915 177.208 29.1751V20.8248C177.208 20.5197 177.367 20.3615 177.686 20.3615C177.993 20.3615 178.152 20.5197 178.152 20.8248V28.7118H181.891ZM191.223 29.1751C191.223 29.4915 191.064 29.6384 190.745 29.6384C190.438 29.6384 190.279 29.4915 190.279 29.1751V22.6101L186.517 29.4011C186.392 29.6045 186.244 29.7062 186.062 29.7062C185.778 29.7062 185.631 29.5367 185.631 29.1864V20.8248C185.631 20.5197 185.79 20.3615 186.097 20.3615C186.415 20.3615 186.574 20.5197 186.574 20.8248V27.3898L190.336 20.5988C190.45 20.3954 190.598 20.2938 190.779 20.2938C191.075 20.2938 191.223 20.4745 191.223 20.8248V29.1751ZM198.69 27.322C198.69 27.9661 198.463 28.5197 198.008 28.9717C197.542 29.4124 196.997 29.6384 196.36 29.6384H195.428C194.78 29.6384 194.235 29.4124 193.78 28.9717C193.325 28.5197 193.098 27.9661 193.098 27.322V22.6779C193.098 22.0452 193.325 21.5028 193.78 21.0395C194.235 20.5875 194.78 20.3615 195.428 20.3615H196.36C196.997 20.3615 197.542 20.5875 198.008 21.0395C198.463 21.5028 198.69 22.0452 198.69 22.6779V27.322ZM197.747 27.322V22.6892C197.747 22.305 197.61 21.9774 197.338 21.7062C197.065 21.435 196.735 21.2994 196.36 21.2994H195.428C195.042 21.2994 194.723 21.435 194.451 21.7062C194.178 21.9774 194.041 22.305 194.041 22.6892V27.322C194.041 27.7062 194.178 28.0339 194.451 28.305C194.723 28.5762 195.042 28.7118 195.428 28.7118H196.36C196.735 28.7118 197.065 28.5762 197.338 28.305C197.61 28.0339 197.747 27.7062 197.747 27.322ZM205.214 24.0791V20.8135C205.214 20.4971 205.373 20.3502 205.692 20.3502C205.999 20.3502 206.158 20.4971 206.158 20.8135V29.1638C206.158 29.4689 205.999 29.6271 205.68 29.6271C205.373 29.6271 205.214 29.4802 205.214 29.1751V25.0056H201.509V29.1864C201.509 29.4915 201.35 29.6384 201.043 29.6384C200.725 29.6384 200.566 29.4915 200.566 29.1751V20.8248C200.566 20.5197 200.725 20.3615 201.043 20.3615C201.35 20.3615 201.509 20.5197 201.509 20.8248V24.0791H205.214ZM212.682 24.0791V20.8135C212.682 20.4971 212.841 20.3502 213.159 20.3502C213.466 20.3502 213.625 20.4971 213.625 20.8135V29.1638C213.625 29.4689 213.466 29.6271 213.148 29.6271C212.841 29.6271 212.682 29.4802 212.682 29.1751V25.0056H208.976V29.1864C208.976 29.4915 208.817 29.6384 208.51 29.6384C208.192 29.6384 208.033 29.4915 208.033 29.1751V20.8248C208.033 20.5197 208.192 20.3615 208.51 20.3615C208.817 20.3615 208.976 20.5197 208.976 20.8248V24.0791H212.682ZM219.229 27.322V26.3954C219.229 26.0113 219.092 25.6836 218.819 25.4124C218.547 25.1412 218.217 25.0056 217.831 25.0056H216.433V28.7118H217.831C218.217 28.7118 218.547 28.5762 218.819 28.305C219.092 28.0339 219.229 27.7062 219.229 27.322ZM220.172 27.322C220.172 27.9661 219.945 28.5197 219.49 28.9717C219.035 29.4124 218.479 29.6384 217.831 29.6384H215.967C215.842 29.6384 215.728 29.5932 215.637 29.5028C215.546 29.4124 215.489 29.2994 215.489 29.1751V20.8248C215.489 20.5197 215.648 20.3615 215.967 20.3615C216.273 20.3615 216.433 20.5197 216.433 20.8248V24.0791H217.842C218.479 24.0791 219.035 24.305 219.49 24.757C219.945 25.209 220.172 25.7514 220.172 26.3954V27.322ZM222.036 29.1751C222.036 29.4915 221.877 29.6384 221.57 29.6384C221.252 29.6384 221.093 29.4915 221.093 29.1751V20.8248C221.093 20.5197 221.252 20.3615 221.57 20.3615C221.877 20.3615 222.036 20.5197 222.036 20.8248V29.1751ZM224.844 24.0791H227.185C227.492 24.0791 227.651 24.226 227.651 24.5423C227.651 24.8587 227.492 25.0056 227.185 25.0056H224.844V28.7118H228.117C228.424 28.7118 228.583 28.87 228.583 29.1751C228.583 29.4915 228.424 29.6384 228.117 29.6384H224.366C224.059 29.6384 223.9 29.5028 223.9 29.209V20.8248C223.9 20.5197 224.059 20.3615 224.366 20.3615H228.117C228.424 20.3615 228.583 20.5197 228.583 20.8248C228.583 21.1412 228.424 21.2994 228.117 21.2994H224.844V24.0791ZM134.733 45.5254H132.869C132.221 45.5254 131.664 45.2994 131.21 44.8474C130.755 44.3954 130.528 43.8418 130.528 43.1977V38.5649C130.528 37.9209 130.755 37.3785 131.21 36.9265C131.664 36.4745 132.221 36.2373 132.869 36.2373H134.733C135.04 36.2373 135.199 36.3954 135.199 36.7118C135.199 37.0169 135.04 37.1751 134.733 37.1751H132.869C132.483 37.1751 132.153 37.3107 131.88 37.5819C131.608 37.8531 131.471 38.1808 131.471 38.5649V43.1977C131.471 43.5819 131.608 43.9096 131.88 44.1808C132.153 44.4519 132.483 44.5875 132.869 44.5875H134.733C135.04 44.5875 135.199 44.7457 135.199 45.0508C135.199 45.3672 135.04 45.5254 134.733 45.5254ZM142.667 45.0621C142.667 45.3672 142.508 45.5254 142.189 45.5254C141.883 45.5254 141.723 45.3672 141.723 45.0621V38.4971L137.961 45.2881C137.836 45.4915 137.688 45.5932 137.507 45.5932C137.222 45.5932 137.075 45.4124 137.075 45.0621V36.7118C137.075 36.3954 137.234 36.2373 137.541 36.2373C137.859 36.2373 138.018 36.3954 138.018 36.7005V43.2655L141.78 36.4858C141.894 36.2712 142.053 36.1695 142.235 36.1695C142.519 36.1695 142.667 36.3502 142.667 36.7005V45.0621ZM148.736 45.5254H146.872C146.224 45.5254 145.679 45.2994 145.213 44.8474C144.758 44.3954 144.531 43.8418 144.531 43.1977V38.5649C144.531 37.9209 144.758 37.3785 145.213 36.9265C145.679 36.4745 146.224 36.2373 146.872 36.2373H148.736C149.055 36.2373 149.202 36.3954 149.202 36.7118C149.202 37.0169 149.055 37.1751 148.736 37.1751H146.872C146.486 37.1751 146.156 37.3107 145.883 37.5819C145.611 37.8531 145.474 38.1808 145.474 38.5649V43.1977C145.474 43.5819 145.611 43.9096 145.883 44.1808C146.156 44.4519 146.486 44.5875 146.872 44.5875H148.736C149.055 44.5875 149.202 44.7457 149.202 45.0508C149.202 45.3672 149.055 45.5254 148.736 45.5254ZM153.43 37.1751H151.544C151.237 37.1751 151.078 37.0169 151.078 36.7118C151.078 36.3954 151.237 36.2373 151.544 36.2373H156.227C156.545 36.2373 156.693 36.3954 156.693 36.7118C156.693 37.0169 156.545 37.1751 156.227 37.1751H154.351V45.0621C154.351 45.3672 154.203 45.5254 153.885 45.5254C153.578 45.5254 153.43 45.3672 153.43 45.0621V37.1751ZM159.477 39.9548H161.819C162.137 39.9548 162.285 40.113 162.285 40.418C162.285 40.7344 162.137 40.8926 161.819 40.8926H159.477V44.5875H162.751C163.069 44.5875 163.217 44.7457 163.217 45.0508C163.217 45.3672 163.069 45.5254 162.751 45.5254H159.011C158.693 45.5254 158.534 45.3785 158.534 45.0847V36.7005C158.534 36.3954 158.693 36.2373 159.011 36.2373H162.751C163.069 36.2373 163.217 36.3954 163.217 36.7118C163.217 37.0169 163.069 37.1751 162.751 37.1751H159.477V39.9548ZM171.616 45.0621C171.616 45.3672 171.457 45.5254 171.15 45.5254C170.832 45.5254 170.673 45.3672 170.673 45.0621V38.4293L168.752 41.6384C168.638 41.8305 168.502 41.9322 168.354 41.9322C168.206 41.9322 168.07 41.8305 167.956 41.6384L166.024 38.4293V45.0621C166.024 45.3672 165.865 45.5254 165.558 45.5254C165.24 45.5254 165.092 45.3672 165.092 45.0621V36.757C165.092 36.3954 165.228 36.2147 165.513 36.2147C165.694 36.2147 165.842 36.3164 165.956 36.5084L168.354 40.4971L170.741 36.5084C170.866 36.3164 171.014 36.2147 171.184 36.2147C171.468 36.2147 171.616 36.3954 171.616 36.757V45.0621ZM177.208 43.1977V42.2712C177.208 41.8983 177.072 41.5706 176.799 41.2994C176.526 41.0282 176.197 40.8926 175.81 40.8926H174.412V44.5875H175.81C176.197 44.5875 176.526 44.4519 176.799 44.1808C177.072 43.9096 177.208 43.5819 177.208 43.1977ZM178.152 43.1977C178.152 43.8418 177.924 44.3954 177.47 44.8474C177.015 45.2994 176.458 45.5254 175.81 45.5254H173.946C173.821 45.5254 173.708 45.4802 173.617 45.3785C173.526 45.2881 173.48 45.1864 173.48 45.0621V36.7005C173.48 36.3954 173.628 36.2373 173.946 36.2373C174.264 36.2373 174.412 36.3954 174.412 36.7005V39.9548H175.822C176.469 39.9548 177.015 40.1808 177.47 40.6327C177.924 41.0847 178.152 41.6271 178.152 42.2712V43.1977ZM180.016 45.0621C180.016 45.3672 179.868 45.5254 179.55 45.5254C179.231 45.5254 179.084 45.3672 179.084 45.0621V36.7005C179.084 36.3954 179.231 36.2373 179.55 36.2373C179.868 36.2373 180.016 36.3954 180.016 36.7005V45.0621Z" fill="white"/></svg>